<?xml version="1.0" encoding="UTF-8"?>
<svg version="1.1" fill="#FF9F00" viewBox="0 0 67.733328 67.733338" xmlns="http://www.w3.org/2000/svg">
    <path d="M 34.564453 10.675781 C 25.17704 10.738854 17.544312 17.95023 16.609375 27.097656 L 14.980469 27.097656 C 6.7291244 27.097649 -1.2560453e-06 33.826781 0 42.078125 C -1.8840662e-06 50.32947 6.7291239 57.058601 14.980469 57.058594 L 54.396484 57.058594 C 61.740782 57.058589 67.732416 51.065 67.732422 43.720703 C 67.732428 36.376398 61.74079 30.382818 54.396484 30.382812 L 54.363281 30.382812 L 52.953125 30.382812 L 52.953125 28.939453 C 52.953119 18.876027 44.756049 10.679004 34.693359 10.675781 C 34.65447 10.675651 34.617014 10.675663 34.578125 10.675781 L 34.572266 10.675781 L 34.564453 10.675781 z M 34.580078 14.357422 L 34.589844 14.357422 C 34.620513 14.357331 34.650971 14.357319 34.681641 14.357422 L 34.685547 14.357422 L 34.6875 14.357422 C 42.762783 14.357413 49.269526 20.86417 49.269531 28.939453 L 49.269531 34.066406 L 54.363281 34.066406 L 54.396484 34.066406 C 59.750662 34.06641 64.050785 38.366525 64.050781 43.720703 C 64.050777 49.074875 59.750656 53.374996 54.396484 53.375 L 14.980469 53.375 C 8.7192529 53.375006 3.6816392 48.339341 3.6816406 42.078125 C 3.6816397 35.81691 8.7192533 30.781244 14.980469 30.78125 L 20.105469 30.78125 L 20.105469 28.939453 C 20.105292 20.906045 26.548161 14.416697 34.580078 14.357422 z"/>
</svg>
