<?xml version="1.0" encoding="UTF-8"?>
<svg version="1.1" fill="#FF9F00" viewBox="0 0 67.733328 67.733338" xmlns="http://www.w3.org/2000/svg">
    <path d="M 30.076172 0 C 27.614564 0 25.574219 2.0403458 25.574219 4.5019531 L 25.574219 10.257812 C 24.708537 10.562071 23.862423 10.911593 23.035156 11.308594 L 18.966797 7.2382812 C 17.225939 5.4974235 14.340467 5.4974228 12.599609 7.2382812 L 7.2382812 12.599609 C 5.497426 14.340468 5.4974263 17.223986 7.2382812 18.964844 L 11.310547 23.037109 C 10.913601 23.864138 10.562067 24.708786 10.257812 25.574219 L 4.5019531 25.574219 C 2.0403418 25.574219 0 27.614076 0 30.076172 L 0 37.65625 C 0 40.118346 2.0403418 42.158203 4.5019531 42.158203 L 10.257812 42.158203 C 10.561958 43.023733 10.913693 43.868178 11.310547 44.695312 L 7.2382812 48.767578 C 5.4974254 50.508435 5.4974224 53.391956 7.2382812 55.132812 L 12.599609 60.494141 C 14.340467 62.235 17.225939 62.235 18.966797 60.494141 L 23.037109 56.421875 C 23.864382 56.818993 24.708515 57.170241 25.574219 57.474609 L 25.574219 63.232422 C 25.574219 65.69403 27.614077 67.732422 30.076172 67.732422 L 37.658203 67.732422 C 40.120298 67.732422 42.158203 65.694029 42.158203 63.232422 L 42.158203 57.476562 C 43.024302 57.172217 43.869615 56.821002 44.697266 56.423828 L 48.767578 60.494141 C 50.508438 62.234997 53.393908 62.235 55.134766 60.494141 L 60.494141 55.132812 C 62.234997 53.391956 62.234996 50.508435 60.494141 48.767578 L 56.423828 44.697266 C 56.821095 43.869721 57.172107 43.024205 57.476562 42.158203 L 63.232422 42.158203 C 65.694034 42.158203 67.732422 40.117859 67.732422 37.65625 L 67.732422 30.076172 C 67.732422 27.614563 65.694034 25.574219 63.232422 25.574219 L 57.476562 25.574219 C 57.172217 24.70812 56.821002 23.862807 56.423828 23.035156 L 60.494141 18.964844 C 62.234994 17.223986 62.234994 14.340467 60.494141 12.599609 L 55.134766 7.2382812 C 53.393908 5.4974226 50.508438 5.4974256 48.767578 7.2382812 L 44.695312 11.310547 C 43.868283 10.9136 43.023636 10.562068 42.158203 10.257812 L 42.158203 4.5019531 C 42.158203 2.0403466 40.119812 0 37.658203 0 L 30.076172 0 z M 30.076172 3.7050781 L 37.658203 3.7050781 C 38.132165 3.7050781 38.455078 4.0279882 38.455078 4.5019531 L 38.455078 11.482422 A 1.8523002 1.8523002 0 0 0 39.794922 13.261719 C 41.342656 13.707201 42.834906 14.32573 44.244141 15.105469 A 1.8523002 1.8523002 0 0 0 46.451172 14.794922 L 51.386719 9.8574219 C 51.721625 9.5225161 52.180723 9.5225192 52.515625 9.8574219 L 57.875 15.21875 C 58.209907 15.553658 58.209907 16.010795 57.875 16.345703 L 52.939453 21.283203 A 1.8523002 1.8523002 0 0 0 52.626953 23.488281 C 53.406545 24.897708 54.025427 26.391559 54.470703 27.939453 A 1.8523002 1.8523002 0 0 0 56.25 29.279297 L 63.232422 29.279297 C 63.706386 29.279297 64.029297 29.602211 64.029297 30.076172 L 64.029297 37.65625 C 64.029297 38.130211 63.706386 38.453125 63.232422 38.453125 L 56.25 38.453125 A 1.8523002 1.8523002 0 0 0 54.470703 39.792969 C 54.02522 41.340702 53.406692 42.834906 52.626953 44.244141 A 1.8523002 1.8523002 0 0 0 52.9375 46.449219 L 57.875 51.386719 C 58.209905 51.721624 58.209904 52.178768 57.875 52.513672 L 52.515625 57.875 C 52.180722 58.209903 51.721625 58.209906 51.386719 57.875 L 46.451172 52.9375 A 1.8523002 1.8523002 0 0 0 44.244141 52.626953 C 42.834714 53.406545 41.342816 54.025428 39.794922 54.470703 A 1.8523002 1.8523002 0 0 0 38.455078 56.25 L 38.455078 63.232422 C 38.455078 63.706389 38.131678 64.029297 37.658203 64.029297 L 30.076172 64.029297 C 29.602699 64.029297 29.279297 63.706388 29.279297 63.232422 L 29.279297 56.25 A 1.8523002 1.8523002 0 0 0 27.939453 54.470703 C 26.391719 54.025221 24.899469 53.406692 23.490234 52.626953 A 1.8523002 1.8523002 0 0 0 21.283203 52.9375 L 16.345703 57.875 C 16.010801 58.209903 15.553653 58.209903 15.21875 57.875 L 9.859375 52.513672 C 9.5244709 52.178768 9.5244697 51.721624 9.859375 51.386719 L 14.794922 46.451172 A 1.8523002 1.8523002 0 0 0 15.105469 44.244141 C 14.325877 42.834715 13.708947 41.342815 13.263672 39.794922 A 1.8523002 1.8523002 0 0 0 11.482422 38.453125 L 4.5019531 38.453125 C 4.0279943 38.453125 3.7050781 38.129724 3.7050781 37.65625 L 3.7050781 30.076172 C 3.7050781 29.602698 4.0279943 29.279297 4.5019531 29.279297 L 11.482422 29.279297 A 1.8523002 1.8523002 0 0 0 13.263672 27.939453 C 13.709155 26.39172 14.327683 24.899468 15.107422 23.490234 A 1.8523002 1.8523002 0 0 0 14.794922 21.283203 L 9.859375 16.345703 C 9.5244688 16.010796 9.5244679 15.553658 9.859375 15.21875 L 15.21875 9.8574219 C 15.553652 9.5225195 16.010801 9.5225194 16.345703 9.8574219 L 21.283203 14.794922 A 1.8523002 1.8523002 0 0 0 23.488281 15.105469 C 24.897708 14.325877 26.391559 13.706995 27.939453 13.261719 A 1.8523002 1.8523002 0 0 0 29.279297 11.482422 L 29.279297 4.5019531 C 29.279297 4.027989 29.602212 3.7050781 30.076172 3.7050781 z M 33.867188 20.255859 C 26.372385 20.255541 20.255911 26.372385 20.255859 33.867188 C 20.255544 41.362247 26.372128 47.476881 33.867188 47.476562 C 41.361988 47.47651 47.476878 41.361988 47.476562 33.867188 C 47.476511 26.372644 41.361731 20.255912 33.867188 20.255859 z M 33.867188 23.960938 C 39.359834 23.960976 43.7734 28.37454 43.773438 33.867188 C 43.773669 39.360028 39.360027 43.773399 33.867188 43.773438 C 28.374153 43.773671 23.960706 39.360222 23.960938 33.867188 C 23.960975 28.374346 28.374346 23.960704 33.867188 23.960938 z"/>
</svg>
