<?xml version="1.0" encoding="UTF-8"?>
<svg width="1920.2" height="1054.9" version="1.1" viewBox="0 0 1920.2 1054.9" xmlns="http://www.w3.org/2000/svg">
    <defs>
        <linearGradient id="linear-gradient" x1=".5" x2=".5" y1="1">
            <stop stop-color="#361cc1" offset="0"/>
            <stop stop-color="#2e82ef" offset="1"/>
        </linearGradient>
    </defs>
    <g transform="translate(.13 -6328.6)" fill="url(#linear-gradient)">
        <path transform="translate(553,6629)"
              d="m1383.8 257.7s-85.855-337.77-386.68-270.23c-300.82 67.538-368.76 5.5766-545.7-72.665-160.63-71.028-361.29-82.341-583.92-34.593s-302.43-21.533-420.62-180.62c0 0.029 0.052 1054.9 0.052 1054.9h1920.1z"
              opacity=".11"/>
        <path transform="translate(562.61 6686.9)"
              d="m1357.4 153.41s-67.704-248.71-367.34-183.64c-299.63 65.068-404.21-3.7177-554.73-71.075-156.12-69.864-348.52-92.593-576.54-36.271s-380-116.48-421.44-220.59c0.1 8-0.016 1054.7-0.016 1054.7h1920z"/>
    </g>
</svg>
