<?xml version="1.0" encoding="UTF-8"?>
<svg version="1.1" fill="#2e7fee" viewBox="0 0 67.733328 67.733338" xmlns="http://www.w3.org/2000/svg">
    <path d="M 33.671875 0.013671875 C 31.62123 -0.16930097 29.484375 1.3972705 29.484375 3.6757812 C 29.484375 13.423509 24.42408 18.174163 18.800781 23.466797 C 13.177482 28.759431 6.9511719 34.600479 6.9511719 45.238281 C 6.9511719 51.895173 10.116184 57.295519 13.251953 61.027344 C 16.387722 64.759169 19.531438 66.88945 19.878906 67.121094 C 21.246784 68.032936 22.998553 67.864164 24.146484 67.025391 C 25.294416 66.186617 25.986509 64.572099 25.535156 62.992188 C 23.235446 54.943007 23.098764 47.029507 26.96875 40.759766 C 27.115417 41.798945 27.22508 42.854163 27.669922 43.779297 C 28.92674 46.393088 31.464349 48.275523 34.830078 49.03125 C 37.175889 49.557897 39.938973 49.523022 43.080078 49.144531 C 43.982888 50.301422 44.304719 52.054095 43.908203 54.425781 C 43.458903 57.113186 42.251272 60.138081 41.146484 62.347656 C 40.349184 63.942139 40.884436 65.808278 42.019531 66.808594 C 43.154626 67.80891 45.068449 68.108966 46.550781 67.121094 C 55.307358 61.283378 60.250831 53.639062 60.740234 44.75 C 61.23521 35.760397 57.147008 26.736384 51.914062 18.978516 C 46.681117 11.220647 40.249597 4.709183 35.611328 0.81835938 C 35.029264 0.33011015 34.355423 0.074662824 33.671875 0.013671875 z M 33.232422 3.65625 C 37.59859 7.3188207 43.862987 13.664822 48.84375 21.048828 C 53.824513 28.432834 57.467492 36.836811 57.042969 44.546875 C 56.620758 52.215519 52.569127 58.657043 44.496094 64.039062 L 44.496094 64.037109 C 44.386801 64.109945 44.510786 64.066342 44.46875 64.029297 C 44.426714 63.992252 44.398254 64.127311 44.458984 64.005859 C 45.676661 61.570506 47.013937 58.318235 47.5625 55.037109 C 48.111063 51.755984 47.882123 48.142444 45.251953 45.822266 L 44.603516 45.251953 L 43.751953 45.380859 C 40.332044 45.894422 37.667315 45.872971 35.640625 45.417969 C 33.102043 44.847966 31.75514 43.728037 31.007812 42.173828 C 30.260485 40.619619 30.141112 38.419406 30.875 35.714844 L 32.544922 29.5625 L 27.837891 33.863281 C 19.243946 41.716822 18.924514 53.341009 21.972656 64.009766 C 21.999642 64.104227 21.99333 64.011487 21.960938 64.035156 C 21.928545 64.058825 22.017005 64.094666 21.933594 64.039062 C 21.786824 63.941216 18.880092 61.967482 16.087891 58.644531 C 13.29569 55.321581 10.65625 50.713739 10.65625 45.238281 C 10.65625 36.000301 15.696332 31.47572 21.339844 26.164062 C 26.983355 20.852405 33.189453 14.759136 33.189453 3.6757812 C 33.189453 3.5312963 33.12029 3.5621913 33.232422 3.65625 z"/>
</svg>
